<mxfile host="drawio-plugin" modified="2021-07-01T12:16:40.306Z" agent="5.0 (Windows NT 6.2; Win64; x64) AppleWebKit/537.36 (KHTML, like Gecko) Chrome/89.0.4389.90 Safari/537.36" etag="TCnYCb1Mdt2Dq2DK3t_0" version="14.7.4" type="embed"><diagram id="R2lEEEUBdFMjLlhIrx00" name="Page-1"><mxGraphModel dx="1476" dy="441" grid="1" gridSize="10" guides="1" tooltips="1" connect="1" arrows="1" fold="1" page="1" pageScale="1" pageWidth="850" pageHeight="1100" math="0" shadow="0" extFonts="Permanent Marker^https://fonts.googleapis.com/css?family=Permanent+Marker"><root><mxCell id="0"/><mxCell id="1" parent="0"/><mxCell id="C-vyLk0tnHw3VtMMgP7b-23" value="Users" style="shape=table;startSize=30;container=1;collapsible=1;childLayout=tableLayout;fixedRows=1;rowLines=0;fontStyle=1;align=center;resizeLast=1;" parent="1" vertex="1"><mxGeometry x="100" y="210" width="250" height="220" as="geometry"/></mxCell><mxCell id="C-vyLk0tnHw3VtMMgP7b-24" value="" style="shape=partialRectangle;collapsible=0;dropTarget=0;pointerEvents=0;fillColor=none;points=[[0,0.5],[1,0.5]];portConstraint=eastwest;top=0;left=0;right=0;bottom=1;" parent="C-vyLk0tnHw3VtMMgP7b-23" vertex="1"><mxGeometry y="30" width="250" height="30" as="geometry"/></mxCell><mxCell id="C-vyLk0tnHw3VtMMgP7b-25" value="PK" style="shape=partialRectangle;overflow=hidden;connectable=0;fillColor=none;top=0;left=0;bottom=0;right=0;fontStyle=1;" parent="C-vyLk0tnHw3VtMMgP7b-24" vertex="1"><mxGeometry width="30" height="30" as="geometry"/></mxCell><mxCell id="C-vyLk0tnHw3VtMMgP7b-26" value="user_id serial" style="shape=partialRectangle;overflow=hidden;connectable=0;fillColor=none;top=0;left=0;bottom=0;right=0;align=left;spacingLeft=6;fontStyle=1;" parent="C-vyLk0tnHw3VtMMgP7b-24" vertex="1"><mxGeometry x="30" width="220" height="30" as="geometry"/></mxCell><mxCell id="C-vyLk0tnHw3VtMMgP7b-27" value="" style="shape=partialRectangle;collapsible=0;dropTarget=0;pointerEvents=0;fillColor=none;points=[[0,0.5],[1,0.5]];portConstraint=eastwest;top=0;left=0;right=0;bottom=0;" parent="C-vyLk0tnHw3VtMMgP7b-23" vertex="1"><mxGeometry y="60" width="250" height="30" as="geometry"/></mxCell><mxCell id="C-vyLk0tnHw3VtMMgP7b-28" value="" style="shape=partialRectangle;overflow=hidden;connectable=0;fillColor=none;top=0;left=0;bottom=0;right=0;" parent="C-vyLk0tnHw3VtMMgP7b-27" vertex="1"><mxGeometry width="30" height="30" as="geometry"/></mxCell><mxCell id="C-vyLk0tnHw3VtMMgP7b-29" value="username varchar NOT NULL" style="shape=partialRectangle;overflow=hidden;connectable=0;fillColor=none;top=0;left=0;bottom=0;right=0;align=left;spacingLeft=6;horizontal=1;" parent="C-vyLk0tnHw3VtMMgP7b-27" vertex="1"><mxGeometry x="30" width="220" height="30" as="geometry"/></mxCell><mxCell id="wAFvLRqTEPlNnzfOG-CF-8" value="" style="shape=partialRectangle;collapsible=0;dropTarget=0;pointerEvents=0;fillColor=none;points=[[0,0.5],[1,0.5]];portConstraint=eastwest;top=0;left=0;right=0;bottom=0;" parent="C-vyLk0tnHw3VtMMgP7b-23" vertex="1"><mxGeometry y="90" width="250" height="30" as="geometry"/></mxCell><mxCell id="wAFvLRqTEPlNnzfOG-CF-9" value="FK" style="shape=partialRectangle;overflow=hidden;connectable=0;fillColor=none;top=0;left=0;bottom=0;right=0;" parent="wAFvLRqTEPlNnzfOG-CF-8" vertex="1"><mxGeometry width="30" height="30" as="geometry"/></mxCell><mxCell id="wAFvLRqTEPlNnzfOG-CF-10" value="role_id serial2 NOT NULL" style="shape=partialRectangle;overflow=hidden;connectable=0;fillColor=none;top=0;left=0;bottom=0;right=0;align=left;spacingLeft=6;horizontal=1;" parent="wAFvLRqTEPlNnzfOG-CF-8" vertex="1"><mxGeometry x="30" width="220" height="30" as="geometry"/></mxCell><mxCell id="VCrj5-KVnuM9RdP24WYX-9" value="" style="shape=partialRectangle;collapsible=0;dropTarget=0;pointerEvents=0;fillColor=none;points=[[0,0.5],[1,0.5]];portConstraint=eastwest;top=0;left=0;right=0;bottom=0;" parent="C-vyLk0tnHw3VtMMgP7b-23" vertex="1"><mxGeometry y="120" width="250" height="30" as="geometry"/></mxCell><mxCell id="VCrj5-KVnuM9RdP24WYX-10" value="" style="shape=partialRectangle;overflow=hidden;connectable=0;fillColor=none;top=0;left=0;bottom=0;right=0;" parent="VCrj5-KVnuM9RdP24WYX-9" vertex="1"><mxGeometry width="30" height="30" as="geometry"/></mxCell><mxCell id="VCrj5-KVnuM9RdP24WYX-11" value="name varchar(50)" style="shape=partialRectangle;overflow=hidden;connectable=0;fillColor=none;top=0;left=0;bottom=0;right=0;align=left;spacingLeft=6;horizontal=1;" parent="VCrj5-KVnuM9RdP24WYX-9" vertex="1"><mxGeometry x="30" width="220" height="30" as="geometry"/></mxCell><mxCell id="VCrj5-KVnuM9RdP24WYX-12" value="" style="shape=partialRectangle;collapsible=0;dropTarget=0;pointerEvents=0;fillColor=none;points=[[0,0.5],[1,0.5]];portConstraint=eastwest;top=0;left=0;right=0;bottom=0;" parent="C-vyLk0tnHw3VtMMgP7b-23" vertex="1"><mxGeometry y="150" width="250" height="30" as="geometry"/></mxCell><mxCell id="VCrj5-KVnuM9RdP24WYX-13" value="" style="shape=partialRectangle;overflow=hidden;connectable=0;fillColor=none;top=0;left=0;bottom=0;right=0;" parent="VCrj5-KVnuM9RdP24WYX-12" vertex="1"><mxGeometry width="30" height="30" as="geometry"/></mxCell><mxCell id="VCrj5-KVnuM9RdP24WYX-14" value="surname varchar(50)" style="shape=partialRectangle;overflow=hidden;connectable=0;fillColor=none;top=0;left=0;bottom=0;right=0;align=left;spacingLeft=6;horizontal=1;" parent="VCrj5-KVnuM9RdP24WYX-12" vertex="1"><mxGeometry x="30" width="220" height="30" as="geometry"/></mxCell><mxCell id="2" value="" style="shape=partialRectangle;collapsible=0;dropTarget=0;pointerEvents=0;fillColor=none;points=[[0,0.5],[1,0.5]];portConstraint=eastwest;top=0;left=0;right=0;bottom=0;" parent="C-vyLk0tnHw3VtMMgP7b-23" vertex="1"><mxGeometry y="180" width="250" height="30" as="geometry"/></mxCell><mxCell id="3" value="" style="shape=partialRectangle;overflow=hidden;connectable=0;fillColor=none;top=0;left=0;bottom=0;right=0;" parent="2" vertex="1"><mxGeometry width="30" height="30" as="geometry"/></mxCell><mxCell id="4" value="country_id serial" style="shape=partialRectangle;overflow=hidden;connectable=0;fillColor=none;top=0;left=0;bottom=0;right=0;align=left;spacingLeft=6;horizontal=1;" parent="2" vertex="1"><mxGeometry x="30" width="220" height="30" as="geometry"/></mxCell><mxCell id="wAFvLRqTEPlNnzfOG-CF-1" value="Roles" style="shape=table;startSize=30;container=1;collapsible=1;childLayout=tableLayout;fixedRows=1;rowLines=0;fontStyle=1;align=center;resizeLast=1;" parent="1" vertex="1"><mxGeometry x="470" y="270" width="250" height="100" as="geometry"/></mxCell><mxCell id="wAFvLRqTEPlNnzfOG-CF-2" value="" style="shape=partialRectangle;collapsible=0;dropTarget=0;pointerEvents=0;fillColor=none;points=[[0,0.5],[1,0.5]];portConstraint=eastwest;top=0;left=0;right=0;bottom=1;" parent="wAFvLRqTEPlNnzfOG-CF-1" vertex="1"><mxGeometry y="30" width="250" height="30" as="geometry"/></mxCell><mxCell id="wAFvLRqTEPlNnzfOG-CF-3" value="PK" style="shape=partialRectangle;overflow=hidden;connectable=0;fillColor=none;top=0;left=0;bottom=0;right=0;fontStyle=1;" parent="wAFvLRqTEPlNnzfOG-CF-2" vertex="1"><mxGeometry width="30" height="30" as="geometry"/></mxCell><mxCell id="wAFvLRqTEPlNnzfOG-CF-4" value="role_id serial2" style="shape=partialRectangle;overflow=hidden;connectable=0;fillColor=none;top=0;left=0;bottom=0;right=0;align=left;spacingLeft=6;fontStyle=1;" parent="wAFvLRqTEPlNnzfOG-CF-2" vertex="1"><mxGeometry x="30" width="220" height="30" as="geometry"/></mxCell><mxCell id="wAFvLRqTEPlNnzfOG-CF-5" value="" style="shape=partialRectangle;collapsible=0;dropTarget=0;pointerEvents=0;fillColor=none;points=[[0,0.5],[1,0.5]];portConstraint=eastwest;top=0;left=0;right=0;bottom=0;" parent="wAFvLRqTEPlNnzfOG-CF-1" vertex="1"><mxGeometry y="60" width="250" height="30" as="geometry"/></mxCell><mxCell id="wAFvLRqTEPlNnzfOG-CF-6" value="" style="shape=partialRectangle;overflow=hidden;connectable=0;fillColor=none;top=0;left=0;bottom=0;right=0;" parent="wAFvLRqTEPlNnzfOG-CF-5" vertex="1"><mxGeometry width="30" height="30" as="geometry"/></mxCell><mxCell id="wAFvLRqTEPlNnzfOG-CF-7" value="role_name varchar(30) NOT NULL" style="shape=partialRectangle;overflow=hidden;connectable=0;fillColor=none;top=0;left=0;bottom=0;right=0;align=left;spacingLeft=6;horizontal=1;" parent="wAFvLRqTEPlNnzfOG-CF-5" vertex="1"><mxGeometry x="30" width="220" height="30" as="geometry"/></mxCell><mxCell id="wAFvLRqTEPlNnzfOG-CF-11" value="Producers" style="shape=table;startSize=30;container=1;collapsible=1;childLayout=tableLayout;fixedRows=1;rowLines=0;fontStyle=1;align=center;resizeLast=1;" parent="1" vertex="1"><mxGeometry x="-340" y="550" width="250" height="190" as="geometry"/></mxCell><mxCell id="wAFvLRqTEPlNnzfOG-CF-12" value="" style="shape=partialRectangle;collapsible=0;dropTarget=0;pointerEvents=0;fillColor=none;points=[[0,0.5],[1,0.5]];portConstraint=eastwest;top=0;left=0;right=0;bottom=1;" parent="wAFvLRqTEPlNnzfOG-CF-11" vertex="1"><mxGeometry y="30" width="250" height="30" as="geometry"/></mxCell><mxCell id="wAFvLRqTEPlNnzfOG-CF-13" value="PK" style="shape=partialRectangle;overflow=hidden;connectable=0;fillColor=none;top=0;left=0;bottom=0;right=0;fontStyle=1;" parent="wAFvLRqTEPlNnzfOG-CF-12" vertex="1"><mxGeometry width="30" height="30" as="geometry"/></mxCell><mxCell id="wAFvLRqTEPlNnzfOG-CF-14" value="producer_id serial" style="shape=partialRectangle;overflow=hidden;connectable=0;fillColor=none;top=0;left=0;bottom=0;right=0;align=left;spacingLeft=6;fontStyle=1;" parent="wAFvLRqTEPlNnzfOG-CF-12" vertex="1"><mxGeometry x="30" width="220" height="30" as="geometry"/></mxCell><mxCell id="wAFvLRqTEPlNnzfOG-CF-18" value="" style="shape=partialRectangle;collapsible=0;dropTarget=0;pointerEvents=0;fillColor=none;points=[[0,0.5],[1,0.5]];portConstraint=eastwest;top=0;left=0;right=0;bottom=0;" parent="wAFvLRqTEPlNnzfOG-CF-11" vertex="1"><mxGeometry y="60" width="250" height="30" as="geometry"/></mxCell><mxCell id="wAFvLRqTEPlNnzfOG-CF-19" value="" style="shape=partialRectangle;overflow=hidden;connectable=0;fillColor=none;top=0;left=0;bottom=0;right=0;" parent="wAFvLRqTEPlNnzfOG-CF-18" vertex="1"><mxGeometry width="30" height="30" as="geometry"/></mxCell><mxCell id="wAFvLRqTEPlNnzfOG-CF-20" value="name varchar(50) NOT NULL" style="shape=partialRectangle;overflow=hidden;connectable=0;fillColor=none;top=0;left=0;bottom=0;right=0;align=left;spacingLeft=6;horizontal=1;" parent="wAFvLRqTEPlNnzfOG-CF-18" vertex="1"><mxGeometry x="30" width="220" height="30" as="geometry"/></mxCell><mxCell id="_gVlqtnteCOrYCE-07Xu-54" value="" style="shape=partialRectangle;collapsible=0;dropTarget=0;pointerEvents=0;fillColor=none;points=[[0,0.5],[1,0.5]];portConstraint=eastwest;top=0;left=0;right=0;bottom=0;" parent="wAFvLRqTEPlNnzfOG-CF-11" vertex="1"><mxGeometry y="90" width="250" height="30" as="geometry"/></mxCell><mxCell id="_gVlqtnteCOrYCE-07Xu-55" value="" style="shape=partialRectangle;overflow=hidden;connectable=0;fillColor=none;top=0;left=0;bottom=0;right=0;" parent="_gVlqtnteCOrYCE-07Xu-54" vertex="1"><mxGeometry width="30" height="30" as="geometry"/></mxCell><mxCell id="_gVlqtnteCOrYCE-07Xu-56" value="surname varchar(50) NOT NULL" style="shape=partialRectangle;overflow=hidden;connectable=0;fillColor=none;top=0;left=0;bottom=0;right=0;align=left;spacingLeft=6;horizontal=1;" parent="_gVlqtnteCOrYCE-07Xu-54" vertex="1"><mxGeometry x="30" width="220" height="30" as="geometry"/></mxCell><mxCell id="_gVlqtnteCOrYCE-07Xu-57" value="" style="shape=partialRectangle;collapsible=0;dropTarget=0;pointerEvents=0;fillColor=none;points=[[0,0.5],[1,0.5]];portConstraint=eastwest;top=0;left=0;right=0;bottom=0;" parent="wAFvLRqTEPlNnzfOG-CF-11" vertex="1"><mxGeometry y="120" width="250" height="30" as="geometry"/></mxCell><mxCell id="_gVlqtnteCOrYCE-07Xu-58" value="" style="shape=partialRectangle;overflow=hidden;connectable=0;fillColor=none;top=0;left=0;bottom=0;right=0;" parent="_gVlqtnteCOrYCE-07Xu-57" vertex="1"><mxGeometry width="30" height="30" as="geometry"/></mxCell><mxCell id="_gVlqtnteCOrYCE-07Xu-59" value="birth_date timestamp" style="shape=partialRectangle;overflow=hidden;connectable=0;fillColor=none;top=0;left=0;bottom=0;right=0;align=left;spacingLeft=6;horizontal=1;" parent="_gVlqtnteCOrYCE-07Xu-57" vertex="1"><mxGeometry x="30" width="220" height="30" as="geometry"/></mxCell><mxCell id="_gVlqtnteCOrYCE-07Xu-60" value="" style="shape=partialRectangle;collapsible=0;dropTarget=0;pointerEvents=0;fillColor=none;points=[[0,0.5],[1,0.5]];portConstraint=eastwest;top=0;left=0;right=0;bottom=0;" parent="wAFvLRqTEPlNnzfOG-CF-11" vertex="1"><mxGeometry y="150" width="250" height="30" as="geometry"/></mxCell><mxCell id="_gVlqtnteCOrYCE-07Xu-61" value="" style="shape=partialRectangle;overflow=hidden;connectable=0;fillColor=none;top=0;left=0;bottom=0;right=0;" parent="_gVlqtnteCOrYCE-07Xu-60" vertex="1"><mxGeometry width="30" height="30" as="geometry"/></mxCell><mxCell id="_gVlqtnteCOrYCE-07Xu-62" value="country_id serial" style="shape=partialRectangle;overflow=hidden;connectable=0;fillColor=none;top=0;left=0;bottom=0;right=0;align=left;spacingLeft=6;horizontal=1;" parent="_gVlqtnteCOrYCE-07Xu-60" vertex="1"><mxGeometry x="30" width="220" height="30" as="geometry"/></mxCell><mxCell id="_gVlqtnteCOrYCE-07Xu-1" value="Films" style="shape=table;startSize=30;container=1;collapsible=1;childLayout=tableLayout;fixedRows=1;rowLines=0;fontStyle=1;align=center;resizeLast=1;" parent="1" vertex="1"><mxGeometry x="50" y="460" width="250" height="280" as="geometry"/></mxCell><mxCell id="_gVlqtnteCOrYCE-07Xu-2" value="" style="shape=partialRectangle;collapsible=0;dropTarget=0;pointerEvents=0;fillColor=none;points=[[0,0.5],[1,0.5]];portConstraint=eastwest;top=0;left=0;right=0;bottom=1;" parent="_gVlqtnteCOrYCE-07Xu-1" vertex="1"><mxGeometry y="30" width="250" height="30" as="geometry"/></mxCell><mxCell id="_gVlqtnteCOrYCE-07Xu-3" value="PK" style="shape=partialRectangle;overflow=hidden;connectable=0;fillColor=none;top=0;left=0;bottom=0;right=0;fontStyle=1;" parent="_gVlqtnteCOrYCE-07Xu-2" vertex="1"><mxGeometry width="30" height="30" as="geometry"/></mxCell><mxCell id="_gVlqtnteCOrYCE-07Xu-4" value="film_id serial" style="shape=partialRectangle;overflow=hidden;connectable=0;fillColor=none;top=0;left=0;bottom=0;right=0;align=left;spacingLeft=6;fontStyle=1;" parent="_gVlqtnteCOrYCE-07Xu-2" vertex="1"><mxGeometry x="30" width="220" height="30" as="geometry"/></mxCell><mxCell id="_gVlqtnteCOrYCE-07Xu-8" value="" style="shape=partialRectangle;collapsible=0;dropTarget=0;pointerEvents=0;fillColor=none;points=[[0,0.5],[1,0.5]];portConstraint=eastwest;top=0;left=0;right=0;bottom=0;" parent="_gVlqtnteCOrYCE-07Xu-1" vertex="1"><mxGeometry y="60" width="250" height="30" as="geometry"/></mxCell><mxCell id="_gVlqtnteCOrYCE-07Xu-9" value="" style="shape=partialRectangle;overflow=hidden;connectable=0;fillColor=none;top=0;left=0;bottom=0;right=0;" parent="_gVlqtnteCOrYCE-07Xu-8" vertex="1"><mxGeometry width="30" height="30" as="geometry"/></mxCell><mxCell id="_gVlqtnteCOrYCE-07Xu-10" value="film_title varchar(100) NOT NULL" style="shape=partialRectangle;overflow=hidden;connectable=0;fillColor=none;top=0;left=0;bottom=0;right=0;align=left;spacingLeft=6;horizontal=1;" parent="_gVlqtnteCOrYCE-07Xu-8" vertex="1"><mxGeometry x="30" width="220" height="30" as="geometry"/></mxCell><mxCell id="_gVlqtnteCOrYCE-07Xu-5" value="" style="shape=partialRectangle;collapsible=0;dropTarget=0;pointerEvents=0;fillColor=none;points=[[0,0.5],[1,0.5]];portConstraint=eastwest;top=0;left=0;right=0;bottom=0;" parent="_gVlqtnteCOrYCE-07Xu-1" vertex="1"><mxGeometry y="90" width="250" height="30" as="geometry"/></mxCell><mxCell id="_gVlqtnteCOrYCE-07Xu-6" value="" style="shape=partialRectangle;overflow=hidden;connectable=0;fillColor=none;top=0;left=0;bottom=0;right=0;" parent="_gVlqtnteCOrYCE-07Xu-5" vertex="1"><mxGeometry width="30" height="30" as="geometry"/></mxCell><mxCell id="_gVlqtnteCOrYCE-07Xu-7" value="year datetime NOT NULL" style="shape=partialRectangle;overflow=hidden;connectable=0;fillColor=none;top=0;left=0;bottom=0;right=0;align=left;spacingLeft=6;horizontal=1;" parent="_gVlqtnteCOrYCE-07Xu-5" vertex="1"><mxGeometry x="30" width="220" height="30" as="geometry"/></mxCell><mxCell id="_gVlqtnteCOrYCE-07Xu-51" value="" style="shape=partialRectangle;collapsible=0;dropTarget=0;pointerEvents=0;fillColor=none;points=[[0,0.5],[1,0.5]];portConstraint=eastwest;top=0;left=0;right=0;bottom=0;" parent="_gVlqtnteCOrYCE-07Xu-1" vertex="1"><mxGeometry y="120" width="250" height="30" as="geometry"/></mxCell><mxCell id="_gVlqtnteCOrYCE-07Xu-52" value="FK" style="shape=partialRectangle;overflow=hidden;connectable=0;fillColor=none;top=0;left=0;bottom=0;right=0;" parent="_gVlqtnteCOrYCE-07Xu-51" vertex="1"><mxGeometry width="30" height="30" as="geometry"/></mxCell><mxCell id="_gVlqtnteCOrYCE-07Xu-53" value="producer_id serial" style="shape=partialRectangle;overflow=hidden;connectable=0;fillColor=none;top=0;left=0;bottom=0;right=0;align=left;spacingLeft=6;horizontal=1;" parent="_gVlqtnteCOrYCE-07Xu-51" vertex="1"><mxGeometry x="30" width="220" height="30" as="geometry"/></mxCell><mxCell id="_gVlqtnteCOrYCE-07Xu-39" value="" style="shape=partialRectangle;collapsible=0;dropTarget=0;pointerEvents=0;fillColor=none;points=[[0,0.5],[1,0.5]];portConstraint=eastwest;top=0;left=0;right=0;bottom=0;" parent="_gVlqtnteCOrYCE-07Xu-1" vertex="1"><mxGeometry y="150" width="250" height="30" as="geometry"/></mxCell><mxCell id="_gVlqtnteCOrYCE-07Xu-40" value="" style="shape=partialRectangle;overflow=hidden;connectable=0;fillColor=none;top=0;left=0;bottom=0;right=0;" parent="_gVlqtnteCOrYCE-07Xu-39" vertex="1"><mxGeometry width="30" height="30" as="geometry"/></mxCell><mxCell id="_gVlqtnteCOrYCE-07Xu-41" value="description text" style="shape=partialRectangle;overflow=hidden;connectable=0;fillColor=none;top=0;left=0;bottom=0;right=0;align=left;spacingLeft=6;horizontal=1;" parent="_gVlqtnteCOrYCE-07Xu-39" vertex="1"><mxGeometry x="30" width="220" height="30" as="geometry"/></mxCell><mxCell id="_gVlqtnteCOrYCE-07Xu-42" value="" style="shape=partialRectangle;collapsible=0;dropTarget=0;pointerEvents=0;fillColor=none;points=[[0,0.5],[1,0.5]];portConstraint=eastwest;top=0;left=0;right=0;bottom=0;" parent="_gVlqtnteCOrYCE-07Xu-1" vertex="1"><mxGeometry y="180" width="250" height="30" as="geometry"/></mxCell><mxCell id="_gVlqtnteCOrYCE-07Xu-43" value="" style="shape=partialRectangle;overflow=hidden;connectable=0;fillColor=none;top=0;left=0;bottom=0;right=0;" parent="_gVlqtnteCOrYCE-07Xu-42" vertex="1"><mxGeometry width="30" height="30" as="geometry"/></mxCell><mxCell id="_gVlqtnteCOrYCE-07Xu-44" value="rating numeric(4, 2) NOT NULL" style="shape=partialRectangle;overflow=hidden;connectable=0;fillColor=none;top=0;left=0;bottom=0;right=0;align=left;spacingLeft=6;horizontal=1;" parent="_gVlqtnteCOrYCE-07Xu-42" vertex="1"><mxGeometry x="30" width="220" height="30" as="geometry"/></mxCell><mxCell id="_gVlqtnteCOrYCE-07Xu-45" value="" style="shape=partialRectangle;collapsible=0;dropTarget=0;pointerEvents=0;fillColor=none;points=[[0,0.5],[1,0.5]];portConstraint=eastwest;top=0;left=0;right=0;bottom=0;" parent="_gVlqtnteCOrYCE-07Xu-1" vertex="1"><mxGeometry y="210" width="250" height="30" as="geometry"/></mxCell><mxCell id="_gVlqtnteCOrYCE-07Xu-46" value="" style="shape=partialRectangle;overflow=hidden;connectable=0;fillColor=none;top=0;left=0;bottom=0;right=0;" parent="_gVlqtnteCOrYCE-07Xu-45" vertex="1"><mxGeometry width="30" height="30" as="geometry"/></mxCell><mxCell id="_gVlqtnteCOrYCE-07Xu-47" value="poster text NOT NULL" style="shape=partialRectangle;overflow=hidden;connectable=0;fillColor=none;top=0;left=0;bottom=0;right=0;align=left;spacingLeft=6;horizontal=1;" parent="_gVlqtnteCOrYCE-07Xu-45" vertex="1"><mxGeometry x="30" width="220" height="30" as="geometry"/></mxCell><mxCell id="_gVlqtnteCOrYCE-07Xu-48" value="" style="shape=partialRectangle;collapsible=0;dropTarget=0;pointerEvents=0;fillColor=none;points=[[0,0.5],[1,0.5]];portConstraint=eastwest;top=0;left=0;right=0;bottom=0;" parent="_gVlqtnteCOrYCE-07Xu-1" vertex="1"><mxGeometry y="240" width="250" height="30" as="geometry"/></mxCell><mxCell id="_gVlqtnteCOrYCE-07Xu-49" value="FK" style="shape=partialRectangle;overflow=hidden;connectable=0;fillColor=none;top=0;left=0;bottom=0;right=0;" parent="_gVlqtnteCOrYCE-07Xu-48" vertex="1"><mxGeometry width="30" height="30" as="geometry"/></mxCell><mxCell id="_gVlqtnteCOrYCE-07Xu-50" value="created_by serial NOT NULL" style="shape=partialRectangle;overflow=hidden;connectable=0;fillColor=none;top=0;left=0;bottom=0;right=0;align=left;spacingLeft=6;horizontal=1;" parent="_gVlqtnteCOrYCE-07Xu-48" vertex="1"><mxGeometry x="30" width="220" height="30" as="geometry"/></mxCell><mxCell id="_gVlqtnteCOrYCE-07Xu-11" value="Genres" style="shape=table;startSize=30;container=1;collapsible=1;childLayout=tableLayout;fixedRows=1;rowLines=0;fontStyle=1;align=center;resizeLast=1;" parent="1" vertex="1"><mxGeometry x="400" y="630" width="250" height="130" as="geometry"/></mxCell><mxCell id="_gVlqtnteCOrYCE-07Xu-12" value="" style="shape=partialRectangle;collapsible=0;dropTarget=0;pointerEvents=0;fillColor=none;points=[[0,0.5],[1,0.5]];portConstraint=eastwest;top=0;left=0;right=0;bottom=1;" parent="_gVlqtnteCOrYCE-07Xu-11" vertex="1"><mxGeometry y="30" width="250" height="30" as="geometry"/></mxCell><mxCell id="_gVlqtnteCOrYCE-07Xu-13" value="PK" style="shape=partialRectangle;overflow=hidden;connectable=0;fillColor=none;top=0;left=0;bottom=0;right=0;fontStyle=1;" parent="_gVlqtnteCOrYCE-07Xu-12" vertex="1"><mxGeometry width="30" height="30" as="geometry"/></mxCell><mxCell id="_gVlqtnteCOrYCE-07Xu-14" value="genre_id serial" style="shape=partialRectangle;overflow=hidden;connectable=0;fillColor=none;top=0;left=0;bottom=0;right=0;align=left;spacingLeft=6;fontStyle=1;" parent="_gVlqtnteCOrYCE-07Xu-12" vertex="1"><mxGeometry x="30" width="220" height="30" as="geometry"/></mxCell><mxCell id="_gVlqtnteCOrYCE-07Xu-15" value="" style="shape=partialRectangle;collapsible=0;dropTarget=0;pointerEvents=0;fillColor=none;points=[[0,0.5],[1,0.5]];portConstraint=eastwest;top=0;left=0;right=0;bottom=0;" parent="_gVlqtnteCOrYCE-07Xu-11" vertex="1"><mxGeometry y="60" width="250" height="30" as="geometry"/></mxCell><mxCell id="_gVlqtnteCOrYCE-07Xu-16" value="" style="shape=partialRectangle;overflow=hidden;connectable=0;fillColor=none;top=0;left=0;bottom=0;right=0;" parent="_gVlqtnteCOrYCE-07Xu-15" vertex="1"><mxGeometry width="30" height="30" as="geometry"/></mxCell><mxCell id="_gVlqtnteCOrYCE-07Xu-17" value="genre_name varchar(30) NOT NULL" style="shape=partialRectangle;overflow=hidden;connectable=0;fillColor=none;top=0;left=0;bottom=0;right=0;align=left;spacingLeft=6;horizontal=1;" parent="_gVlqtnteCOrYCE-07Xu-15" vertex="1"><mxGeometry x="30" width="220" height="30" as="geometry"/></mxCell><mxCell id="_gVlqtnteCOrYCE-07Xu-18" value="" style="shape=partialRectangle;collapsible=0;dropTarget=0;pointerEvents=0;fillColor=none;points=[[0,0.5],[1,0.5]];portConstraint=eastwest;top=0;left=0;right=0;bottom=0;" parent="_gVlqtnteCOrYCE-07Xu-11" vertex="1"><mxGeometry y="90" width="250" height="30" as="geometry"/></mxCell><mxCell id="_gVlqtnteCOrYCE-07Xu-19" value="" style="shape=partialRectangle;overflow=hidden;connectable=0;fillColor=none;top=0;left=0;bottom=0;right=0;" parent="_gVlqtnteCOrYCE-07Xu-18" vertex="1"><mxGeometry width="30" height="30" as="geometry"/></mxCell><mxCell id="_gVlqtnteCOrYCE-07Xu-20" value="description text" style="shape=partialRectangle;overflow=hidden;connectable=0;fillColor=none;top=0;left=0;bottom=0;right=0;align=left;spacingLeft=6;horizontal=1;" parent="_gVlqtnteCOrYCE-07Xu-18" vertex="1"><mxGeometry x="30" width="220" height="30" as="geometry"/></mxCell><mxCell id="_gVlqtnteCOrYCE-07Xu-21" value="Films_genres" style="shape=table;startSize=30;container=1;collapsible=1;childLayout=tableLayout;fixedRows=1;rowLines=0;fontStyle=1;align=center;resizeLast=1;" parent="1" vertex="1"><mxGeometry x="400" y="460" width="250" height="90" as="geometry"/></mxCell><mxCell id="_gVlqtnteCOrYCE-07Xu-22" value="" style="shape=partialRectangle;collapsible=0;dropTarget=0;pointerEvents=0;fillColor=none;points=[[0,0.5],[1,0.5]];portConstraint=eastwest;top=0;left=0;right=0;bottom=1;" parent="_gVlqtnteCOrYCE-07Xu-21" vertex="1"><mxGeometry y="30" width="250" height="30" as="geometry"/></mxCell><mxCell id="_gVlqtnteCOrYCE-07Xu-23" value="PK" style="shape=partialRectangle;overflow=hidden;connectable=0;fillColor=none;top=0;left=0;bottom=0;right=0;fontStyle=1;" parent="_gVlqtnteCOrYCE-07Xu-22" vertex="1"><mxGeometry width="30" height="30" as="geometry"/></mxCell><mxCell id="_gVlqtnteCOrYCE-07Xu-24" value="film_id serial" style="shape=partialRectangle;overflow=hidden;connectable=0;fillColor=none;top=0;left=0;bottom=0;right=0;align=left;spacingLeft=6;fontStyle=1;" parent="_gVlqtnteCOrYCE-07Xu-22" vertex="1"><mxGeometry x="30" width="220" height="30" as="geometry"/></mxCell><mxCell id="_gVlqtnteCOrYCE-07Xu-31" value="" style="shape=partialRectangle;collapsible=0;dropTarget=0;pointerEvents=0;fillColor=none;points=[[0,0.5],[1,0.5]];portConstraint=eastwest;top=0;left=0;right=0;bottom=1;" parent="_gVlqtnteCOrYCE-07Xu-21" vertex="1"><mxGeometry y="60" width="250" height="30" as="geometry"/></mxCell><mxCell id="_gVlqtnteCOrYCE-07Xu-32" value="PK" style="shape=partialRectangle;overflow=hidden;connectable=0;fillColor=none;top=0;left=0;bottom=0;right=0;fontStyle=1;" parent="_gVlqtnteCOrYCE-07Xu-31" vertex="1"><mxGeometry width="30" height="30" as="geometry"/></mxCell><mxCell id="_gVlqtnteCOrYCE-07Xu-33" value="genre_id serial" style="shape=partialRectangle;overflow=hidden;connectable=0;fillColor=none;top=0;left=0;bottom=0;right=0;align=left;spacingLeft=6;fontStyle=1;" parent="_gVlqtnteCOrYCE-07Xu-31" vertex="1"><mxGeometry x="30" width="220" height="30" as="geometry"/></mxCell><mxCell id="VCrj5-KVnuM9RdP24WYX-4" style="edgeStyle=orthogonalEdgeStyle;rounded=0;orthogonalLoop=1;jettySize=auto;html=1;endArrow=ERzeroToMany;endFill=1;startArrow=ERzeroToOne;startFill=1;" parent="1" source="wAFvLRqTEPlNnzfOG-CF-12" target="_gVlqtnteCOrYCE-07Xu-51" edge="1"><mxGeometry relative="1" as="geometry"/></mxCell><mxCell id="VCrj5-KVnuM9RdP24WYX-5" style="edgeStyle=orthogonalEdgeStyle;rounded=0;orthogonalLoop=1;jettySize=auto;html=1;startArrow=ERmandOne;startFill=0;endArrow=ERzeroToMany;endFill=1;" parent="1" source="_gVlqtnteCOrYCE-07Xu-12" target="_gVlqtnteCOrYCE-07Xu-31" edge="1"><mxGeometry relative="1" as="geometry"><Array as="points"><mxPoint x="670" y="675"/><mxPoint x="670" y="535"/></Array></mxGeometry></mxCell><mxCell id="VCrj5-KVnuM9RdP24WYX-6" style="edgeStyle=orthogonalEdgeStyle;rounded=0;orthogonalLoop=1;jettySize=auto;html=1;startArrow=ERmandOne;startFill=0;endArrow=ERoneToMany;endFill=0;" parent="1" source="_gVlqtnteCOrYCE-07Xu-2" target="_gVlqtnteCOrYCE-07Xu-22" edge="1"><mxGeometry relative="1" as="geometry"/></mxCell><mxCell id="VCrj5-KVnuM9RdP24WYX-7" style="edgeStyle=orthogonalEdgeStyle;rounded=0;orthogonalLoop=1;jettySize=auto;html=1;jumpStyle=none;shadow=0;startArrow=ERzeroToMany;startFill=1;endArrow=ERmandOne;endFill=0;" parent="1" source="_gVlqtnteCOrYCE-07Xu-48" target="C-vyLk0tnHw3VtMMgP7b-24" edge="1"><mxGeometry relative="1" as="geometry"><Array as="points"><mxPoint x="20" y="715"/><mxPoint x="20" y="255"/></Array></mxGeometry></mxCell><mxCell id="VCrj5-KVnuM9RdP24WYX-8" style="edgeStyle=orthogonalEdgeStyle;rounded=0;orthogonalLoop=1;jettySize=auto;html=1;startArrow=ERmandOne;startFill=0;endArrow=ERzeroToMany;endFill=1;" parent="1" source="wAFvLRqTEPlNnzfOG-CF-2" target="wAFvLRqTEPlNnzfOG-CF-8" edge="1"><mxGeometry relative="1" as="geometry"/></mxCell><mxCell id="5" value="Countries" style="shape=table;startSize=30;container=1;collapsible=1;childLayout=tableLayout;fixedRows=1;rowLines=0;fontStyle=1;align=center;resizeLast=1;" parent="1" vertex="1"><mxGeometry x="-340" y="360" width="250" height="100" as="geometry"/></mxCell><mxCell id="6" value="" style="shape=partialRectangle;collapsible=0;dropTarget=0;pointerEvents=0;fillColor=none;points=[[0,0.5],[1,0.5]];portConstraint=eastwest;top=0;left=0;right=0;bottom=1;" parent="5" vertex="1"><mxGeometry y="30" width="250" height="30" as="geometry"/></mxCell><mxCell id="7" value="PK" style="shape=partialRectangle;overflow=hidden;connectable=0;fillColor=none;top=0;left=0;bottom=0;right=0;fontStyle=1;" parent="6" vertex="1"><mxGeometry width="30" height="30" as="geometry"/></mxCell><mxCell id="8" value="country_id serial" style="shape=partialRectangle;overflow=hidden;connectable=0;fillColor=none;top=0;left=0;bottom=0;right=0;align=left;spacingLeft=6;fontStyle=1;" parent="6" vertex="1"><mxGeometry x="30" width="220" height="30" as="geometry"/></mxCell><mxCell id="18" value="" style="shape=partialRectangle;collapsible=0;dropTarget=0;pointerEvents=0;fillColor=none;points=[[0,0.5],[1,0.5]];portConstraint=eastwest;top=0;left=0;right=0;bottom=0;" parent="5" vertex="1"><mxGeometry y="60" width="250" height="30" as="geometry"/></mxCell><mxCell id="19" value="" style="shape=partialRectangle;overflow=hidden;connectable=0;fillColor=none;top=0;left=0;bottom=0;right=0;" parent="18" vertex="1"><mxGeometry width="30" height="30" as="geometry"/></mxCell><mxCell id="20" value="country varchar(50) NOT NULL" style="shape=partialRectangle;overflow=hidden;connectable=0;fillColor=none;top=0;left=0;bottom=0;right=0;align=left;spacingLeft=6;horizontal=1;" parent="18" vertex="1"><mxGeometry x="30" width="220" height="30" as="geometry"/></mxCell><mxCell id="22" style="edgeStyle=orthogonalEdgeStyle;rounded=0;orthogonalLoop=1;jettySize=auto;html=1;startArrow=ERzeroToOne;startFill=1;endArrow=ERzeroToMany;endFill=1;" parent="1" source="6" target="2" edge="1"><mxGeometry relative="1" as="geometry"/></mxCell><mxCell id="23" style="edgeStyle=orthogonalEdgeStyle;rounded=0;orthogonalLoop=1;jettySize=auto;html=1;startArrow=ERzeroToOne;startFill=1;endArrow=ERzeroToMany;endFill=1;" parent="1" source="6" target="_gVlqtnteCOrYCE-07Xu-60" edge="1"><mxGeometry relative="1" as="geometry"><Array as="points"><mxPoint x="-360" y="405"/><mxPoint x="-360" y="715"/></Array></mxGeometry></mxCell></root></mxGraphModel></diagram></mxfile>